<mxfile host="www.draw.io" modified="2020-02-14T17:24:00.950Z" agent="Mozilla/5.0 (Macintosh; Intel Mac OS X 10_14_6) AppleWebKit/537.36 (KHTML, like Gecko) Chrome/77.0.3865.120 Safari/537.36" etag="EjWzmv06DXGS2IcuWFia" version="12.7.0" type="github">
  <diagram name="Page-1" id="9f46799a-70d6-7492-0946-bef42562c5a5">
    <mxGraphModel dx="2451" dy="923" grid="1" gridSize="10" guides="1" tooltips="1" connect="1" arrows="1" fold="1" page="1" pageScale="1" pageWidth="1100" pageHeight="850" background="#ffffff" math="0" shadow="0">
      <root>
        <mxCell id="0"/>
        <mxCell id="1" parent="0"/>
        <mxCell id="78961159f06e98e8-108" value="&lt;span style=&quot;font-size: 17px&quot;&gt;VIDEO MIXER&lt;/span&gt;" style="swimlane;html=1;fontStyle=1;align=center;verticalAlign=top;childLayout=stackLayout;horizontal=1;startSize=26;horizontalStack=0;resizeParent=1;resizeLast=0;collapsible=1;marginBottom=0;swimlaneFillColor=#ffffff;rounded=0;shadow=0;comic=0;labelBackgroundColor=none;strokeWidth=1;fillColor=none;fontFamily=Verdana;fontSize=12" parent="1" vertex="1">
          <mxGeometry x="80" y="230" width="160" height="150" as="geometry">
            <mxRectangle x="100" y="259.99999999999983" width="90" height="26" as="alternateBounds"/>
          </mxGeometry>
        </mxCell>
        <mxCell id="78961159f06e98e8-109" value="In-1: CAM 1" style="text;html=1;strokeColor=none;fillColor=none;align=left;verticalAlign=top;spacingLeft=4;spacingRight=4;whiteSpace=wrap;overflow=hidden;rotatable=0;points=[[0,0.5],[1,0.5]];portConstraint=eastwest;" parent="78961159f06e98e8-108" vertex="1">
          <mxGeometry y="26" width="160" height="26" as="geometry"/>
        </mxCell>
        <mxCell id="78961159f06e98e8-110" value="In-2: CAM2" style="text;html=1;strokeColor=none;fillColor=none;align=left;verticalAlign=top;spacingLeft=4;spacingRight=4;whiteSpace=wrap;overflow=hidden;rotatable=0;points=[[0,0.5],[1,0.5]];portConstraint=eastwest;" parent="78961159f06e98e8-108" vertex="1">
          <mxGeometry y="52" width="160" height="26" as="geometry"/>
        </mxCell>
        <mxCell id="78961159f06e98e8-116" value="" style="line;html=1;strokeWidth=1;fillColor=none;align=left;verticalAlign=middle;spacingTop=-1;spacingLeft=3;spacingRight=3;rotatable=0;labelPosition=right;points=[];portConstraint=eastwest;" parent="78961159f06e98e8-108" vertex="1">
          <mxGeometry y="78" width="160" height="8" as="geometry"/>
        </mxCell>
        <mxCell id="fi40TuRNrvIhQZ7FqKg--3" value="In-3" style="text;html=1;strokeColor=none;fillColor=none;align=left;verticalAlign=top;spacingLeft=4;spacingRight=4;whiteSpace=wrap;overflow=hidden;rotatable=0;points=[[0,0.5],[1,0.5]];portConstraint=eastwest;" parent="78961159f06e98e8-108" vertex="1">
          <mxGeometry y="86" width="160" height="26" as="geometry"/>
        </mxCell>
        <mxCell id="78961159f06e98e8-120" value="in-4" style="text;html=1;strokeColor=none;fillColor=none;align=left;verticalAlign=top;spacingLeft=4;spacingRight=4;whiteSpace=wrap;overflow=hidden;rotatable=0;points=[[0,0.5],[1,0.5]];portConstraint=eastwest;" parent="78961159f06e98e8-108" vertex="1">
          <mxGeometry y="112" width="160" height="26" as="geometry"/>
        </mxCell>
        <mxCell id="1SC2-9RjY_NtRS0-zStE-13" style="edgeStyle=orthogonalEdgeStyle;rounded=0;orthogonalLoop=1;jettySize=auto;html=1;" parent="1" source="1SC2-9RjY_NtRS0-zStE-5" target="1SC2-9RjY_NtRS0-zStE-12" edge="1">
          <mxGeometry relative="1" as="geometry"/>
        </mxCell>
        <mxCell id="fi40TuRNrvIhQZ7FqKg--48" style="edgeStyle=orthogonalEdgeStyle;rounded=0;orthogonalLoop=1;jettySize=auto;html=1;" parent="1" source="1SC2-9RjY_NtRS0-zStE-5" edge="1">
          <mxGeometry relative="1" as="geometry">
            <mxPoint x="-501" y="470" as="targetPoint"/>
          </mxGeometry>
        </mxCell>
        <mxCell id="1SC2-9RjY_NtRS0-zStE-5" value="" style="shape=mxgraph.signs.tech.video_camera;html=1;fillColor=#000000;strokeColor=none;verticalLabelPosition=bottom;verticalAlign=top;align=center;rotation=-180;" parent="1" vertex="1">
          <mxGeometry x="-550" y="280" width="98" height="40" as="geometry"/>
        </mxCell>
        <mxCell id="1SC2-9RjY_NtRS0-zStE-6" value="" style="shape=image;html=1;verticalAlign=top;verticalLabelPosition=bottom;labelBackgroundColor=#ffffff;imageAspect=0;aspect=fixed;image=https://cdn4.iconfinder.com/data/icons/football/128/my-computer.png" parent="1" vertex="1">
          <mxGeometry x="-680" y="254" width="80" height="80" as="geometry"/>
        </mxCell>
        <mxCell id="1SC2-9RjY_NtRS0-zStE-7" value="ZONA MIXTA" style="text;html=1;strokeColor=none;fillColor=none;align=center;verticalAlign=middle;whiteSpace=wrap;rounded=0;strokeWidth=18;" parent="1" vertex="1">
          <mxGeometry x="-680" y="364" width="70" height="60" as="geometry"/>
        </mxCell>
        <mxCell id="1SC2-9RjY_NtRS0-zStE-15" style="edgeStyle=orthogonalEdgeStyle;rounded=0;orthogonalLoop=1;jettySize=auto;html=1;" parent="1" source="1SC2-9RjY_NtRS0-zStE-8" target="1SC2-9RjY_NtRS0-zStE-14" edge="1">
          <mxGeometry relative="1" as="geometry"/>
        </mxCell>
        <mxCell id="fi40TuRNrvIhQZ7FqKg--46" style="edgeStyle=orthogonalEdgeStyle;rounded=0;orthogonalLoop=1;jettySize=auto;html=1;exitX=0.5;exitY=0;exitDx=0;exitDy=0;exitPerimeter=0;" parent="1" source="1SC2-9RjY_NtRS0-zStE-8" target="fi40TuRNrvIhQZ7FqKg--9" edge="1">
          <mxGeometry relative="1" as="geometry">
            <Array as="points">
              <mxPoint x="-501" y="550"/>
            </Array>
          </mxGeometry>
        </mxCell>
        <mxCell id="1SC2-9RjY_NtRS0-zStE-8" value="" style="shape=mxgraph.signs.tech.video_camera;html=1;fillColor=#000000;strokeColor=none;verticalLabelPosition=bottom;verticalAlign=top;align=center;rotation=-180;" parent="1" vertex="1">
          <mxGeometry x="-550" y="374" width="98" height="40" as="geometry"/>
        </mxCell>
        <mxCell id="1SC2-9RjY_NtRS0-zStE-9" value="CAM 1&lt;br&gt;" style="text;html=1;align=center;verticalAlign=middle;resizable=0;points=[];autosize=1;strokeWidth=24;" parent="1" vertex="1">
          <mxGeometry x="-520" y="250" width="50" height="20" as="geometry"/>
        </mxCell>
        <mxCell id="1SC2-9RjY_NtRS0-zStE-10" value="CAM 2" style="text;html=1;align=center;verticalAlign=middle;resizable=0;points=[];autosize=1;perimeterSpacing=0;" parent="1" vertex="1">
          <mxGeometry x="-516" y="355" width="50" height="20" as="geometry"/>
        </mxCell>
        <mxCell id="1SC2-9RjY_NtRS0-zStE-25" style="edgeStyle=orthogonalEdgeStyle;rounded=0;orthogonalLoop=1;jettySize=auto;html=1;" parent="1" source="1SC2-9RjY_NtRS0-zStE-12" target="1SC2-9RjY_NtRS0-zStE-16" edge="1">
          <mxGeometry relative="1" as="geometry"/>
        </mxCell>
        <mxCell id="1SC2-9RjY_NtRS0-zStE-12" value="&lt;span style=&quot;font-size: 30px&quot;&gt;CCU-1&lt;/span&gt;" style="rounded=0;whiteSpace=wrap;html=1;strokeWidth=2;" parent="1" vertex="1">
          <mxGeometry x="-350" y="272" width="110" height="56" as="geometry"/>
        </mxCell>
        <mxCell id="1SC2-9RjY_NtRS0-zStE-26" style="edgeStyle=orthogonalEdgeStyle;rounded=0;orthogonalLoop=1;jettySize=auto;html=1;entryX=0;entryY=0.5;entryDx=0;entryDy=0;" parent="1" source="1SC2-9RjY_NtRS0-zStE-14" target="1SC2-9RjY_NtRS0-zStE-23" edge="1">
          <mxGeometry relative="1" as="geometry"/>
        </mxCell>
        <mxCell id="1SC2-9RjY_NtRS0-zStE-14" value="&lt;span style=&quot;font-size: 30px&quot;&gt;CCU-2&lt;/span&gt;" style="rounded=0;whiteSpace=wrap;html=1;strokeWidth=2;" parent="1" vertex="1">
          <mxGeometry x="-350" y="366" width="110" height="56" as="geometry"/>
        </mxCell>
        <mxCell id="1SC2-9RjY_NtRS0-zStE-16" value="" style="triangle;whiteSpace=wrap;html=1;strokeWidth=2;" parent="1" vertex="1">
          <mxGeometry x="-120" y="275" width="30" height="50" as="geometry"/>
        </mxCell>
        <mxCell id="fi40TuRNrvIhQZ7FqKg--2" style="edgeStyle=orthogonalEdgeStyle;rounded=0;orthogonalLoop=1;jettySize=auto;html=1;" parent="1" source="1SC2-9RjY_NtRS0-zStE-17" target="78961159f06e98e8-109" edge="1">
          <mxGeometry relative="1" as="geometry"/>
        </mxCell>
        <mxCell id="1SC2-9RjY_NtRS0-zStE-17" value="" style="line;strokeWidth=2;direction=south;html=1;" parent="1" vertex="1">
          <mxGeometry x="-90" y="275" width="10" height="50" as="geometry"/>
        </mxCell>
        <mxCell id="1SC2-9RjY_NtRS0-zStE-23" value="" style="triangle;whiteSpace=wrap;html=1;strokeWidth=2;" parent="1" vertex="1">
          <mxGeometry x="-10" y="369" width="30" height="50" as="geometry"/>
        </mxCell>
        <mxCell id="fi40TuRNrvIhQZ7FqKg--6" style="edgeStyle=orthogonalEdgeStyle;rounded=0;orthogonalLoop=1;jettySize=auto;html=1;" parent="1" source="1SC2-9RjY_NtRS0-zStE-24" target="78961159f06e98e8-110" edge="1">
          <mxGeometry relative="1" as="geometry"/>
        </mxCell>
        <mxCell id="1SC2-9RjY_NtRS0-zStE-24" value="" style="line;strokeWidth=2;direction=south;html=1;" parent="1" vertex="1">
          <mxGeometry x="15" y="366" width="10" height="50" as="geometry"/>
        </mxCell>
        <mxCell id="fi40TuRNrvIhQZ7FqKg--12" style="edgeStyle=orthogonalEdgeStyle;rounded=0;orthogonalLoop=1;jettySize=auto;html=1;" parent="1" source="fi40TuRNrvIhQZ7FqKg--7" target="fi40TuRNrvIhQZ7FqKg--8" edge="1">
          <mxGeometry relative="1" as="geometry"/>
        </mxCell>
        <mxCell id="fi40TuRNrvIhQZ7FqKg--7" value="PSG&lt;br&gt;(G.SYN)" style="rounded=0;whiteSpace=wrap;html=1;" parent="1" vertex="1">
          <mxGeometry x="120" y="530" width="120" height="60" as="geometry"/>
        </mxCell>
        <mxCell id="fi40TuRNrvIhQZ7FqKg--8" value="" style="triangle;whiteSpace=wrap;html=1;strokeWidth=2;rotation=-180;" parent="1" vertex="1">
          <mxGeometry x="45" y="530" width="30" height="50" as="geometry"/>
        </mxCell>
        <mxCell id="fi40TuRNrvIhQZ7FqKg--15" style="edgeStyle=orthogonalEdgeStyle;rounded=0;orthogonalLoop=1;jettySize=auto;html=1;entryX=0;entryY=0.5;entryDx=0;entryDy=0;" parent="1" source="fi40TuRNrvIhQZ7FqKg--9" target="78961159f06e98e8-120" edge="1">
          <mxGeometry relative="1" as="geometry"/>
        </mxCell>
        <mxCell id="fi40TuRNrvIhQZ7FqKg--9" value="" style="line;strokeWidth=2;direction=south;html=1;" parent="1" vertex="1">
          <mxGeometry x="40" y="535" width="10" height="95" as="geometry"/>
        </mxCell>
        <mxCell id="fi40TuRNrvIhQZ7FqKg--33" value="" style="shape=partialRectangle;whiteSpace=wrap;html=1;bottom=1;right=1;left=1;top=0;fillColor=none;routingCenterX=-0.5;" parent="1" vertex="1">
          <mxGeometry x="-385" y="414" width="180" height="60" as="geometry"/>
        </mxCell>
        <mxCell id="fi40TuRNrvIhQZ7FqKg--35" value="" style="shape=partialRectangle;whiteSpace=wrap;html=1;bottom=1;right=1;left=1;top=0;fillColor=none;routingCenterX=-0.5;rotation=-180;" parent="1" vertex="1">
          <mxGeometry x="-385" y="230" width="180" height="60" as="geometry"/>
        </mxCell>
        <mxCell id="fi40TuRNrvIhQZ7FqKg--40" value="&lt;span style=&quot;font-size: 22px&quot;&gt;OCP&lt;/span&gt;" style="text;html=1;align=center;verticalAlign=middle;resizable=0;points=[];autosize=1;" parent="1" vertex="1">
          <mxGeometry x="-313" y="209" width="60" height="20" as="geometry"/>
        </mxCell>
        <mxCell id="fi40TuRNrvIhQZ7FqKg--41" value="&lt;span style=&quot;font-size: 22px&quot;&gt;OCP&lt;/span&gt;" style="text;html=1;align=center;verticalAlign=middle;resizable=0;points=[];autosize=1;" parent="1" vertex="1">
          <mxGeometry x="-313" y="480" width="60" height="20" as="geometry"/>
        </mxCell>
        <mxCell id="fi40TuRNrvIhQZ7FqKg--43" value="" style="endArrow=none;html=1;entryX=1;entryY=0;entryDx=0;entryDy=0;exitX=0;exitY=0;exitDx=0;exitDy=0;" parent="1" source="fi40TuRNrvIhQZ7FqKg--33" target="fi40TuRNrvIhQZ7FqKg--35" edge="1">
          <mxGeometry width="50" height="50" relative="1" as="geometry">
            <mxPoint x="-385" y="390" as="sourcePoint"/>
            <mxPoint x="-385" y="310" as="targetPoint"/>
          </mxGeometry>
        </mxCell>
        <mxCell id="fi40TuRNrvIhQZ7FqKg--44" value="" style="endArrow=none;html=1;exitX=1;exitY=0;exitDx=0;exitDy=0;" parent="1" source="fi40TuRNrvIhQZ7FqKg--33" edge="1">
          <mxGeometry width="50" height="50" relative="1" as="geometry">
            <mxPoint x="-205" y="369" as="sourcePoint"/>
            <mxPoint x="-205" y="289" as="targetPoint"/>
          </mxGeometry>
        </mxCell>
        <mxCell id="fi40TuRNrvIhQZ7FqKg--53" value="DB" style="text;html=1;align=center;verticalAlign=middle;resizable=0;points=[];autosize=1;fontSize=22;" parent="1" vertex="1">
          <mxGeometry x="-473" y="514" width="50" height="30" as="geometry"/>
        </mxCell>
        <mxCell id="fi40TuRNrvIhQZ7FqKg--63" style="edgeStyle=orthogonalEdgeStyle;rounded=0;orthogonalLoop=1;jettySize=auto;html=1;entryX=0.4;entryY=0.7;entryDx=0;entryDy=0;entryPerimeter=0;fontSize=22;" parent="1" source="fi40TuRNrvIhQZ7FqKg--54" target="fi40TuRNrvIhQZ7FqKg--9" edge="1">
          <mxGeometry relative="1" as="geometry"/>
        </mxCell>
        <mxCell id="fi40TuRNrvIhQZ7FqKg--54" value="" style="shape=image;html=1;verticalAlign=top;verticalLabelPosition=bottom;labelBackgroundColor=#ffffff;imageAspect=0;aspect=fixed;image=https://cdn2.iconfinder.com/data/icons/flat-ui-icons-24-px/24/video-24-128.png;fontSize=22;rotation=90;" parent="1" vertex="1">
          <mxGeometry x="-640" y="552.5" width="60" height="60" as="geometry"/>
        </mxCell>
        <mxCell id="fi40TuRNrvIhQZ7FqKg--58" value="Spider&lt;br&gt;Cam&amp;nbsp;&lt;br&gt;(Rx Spy)" style="text;html=1;align=center;verticalAlign=middle;resizable=0;points=[];autosize=1;fontSize=22;" parent="1" vertex="1">
          <mxGeometry x="-660" y="464" width="100" height="80" as="geometry"/>
        </mxCell>
        <mxCell id="fi40TuRNrvIhQZ7FqKg--65" style="edgeStyle=orthogonalEdgeStyle;rounded=0;orthogonalLoop=1;jettySize=auto;html=1;entryX=0.663;entryY=0.8;entryDx=0;entryDy=0;entryPerimeter=0;fontSize=22;" parent="1" source="fi40TuRNrvIhQZ7FqKg--64" target="fi40TuRNrvIhQZ7FqKg--9" edge="1">
          <mxGeometry relative="1" as="geometry"/>
        </mxCell>
        <mxCell id="fi40TuRNrvIhQZ7FqKg--64" value="VTR1" style="rounded=0;whiteSpace=wrap;html=1;strokeWidth=2;fontSize=22;" parent="1" vertex="1">
          <mxGeometry x="-205" y="630" width="105" height="50" as="geometry"/>
        </mxCell>
        <mxCell id="fi40TuRNrvIhQZ7FqKg--66" value="(Ray)" style="text;html=1;align=center;verticalAlign=middle;resizable=0;points=[];autosize=1;fontSize=22;" parent="1" vertex="1">
          <mxGeometry x="-187.5" y="680" width="70" height="30" as="geometry"/>
        </mxCell>
        <mxCell id="fi40TuRNrvIhQZ7FqKg--67" style="edgeStyle=orthogonalEdgeStyle;rounded=0;orthogonalLoop=1;jettySize=auto;html=1;exitX=1;exitY=0.5;exitDx=0;exitDy=0;fontSize=22;" parent="1" source="78961159f06e98e8-109" edge="1">
          <mxGeometry relative="1" as="geometry">
            <mxPoint x="450" y="269" as="targetPoint"/>
          </mxGeometry>
        </mxCell>
        <mxCell id="fi40TuRNrvIhQZ7FqKg--71" value="PGM" style="text;html=1;align=center;verticalAlign=middle;resizable=0;points=[];autosize=1;fontSize=22;" parent="1" vertex="1">
          <mxGeometry x="304" y="240" width="70" height="30" as="geometry"/>
        </mxCell>
        <mxCell id="fi40TuRNrvIhQZ7FqKg--75" style="edgeStyle=orthogonalEdgeStyle;rounded=0;orthogonalLoop=1;jettySize=auto;html=1;fontSize=22;" parent="1" source="fi40TuRNrvIhQZ7FqKg--3" edge="1">
          <mxGeometry relative="1" as="geometry">
            <mxPoint x="570" y="329" as="targetPoint"/>
          </mxGeometry>
        </mxCell>
        <mxCell id="fi40TuRNrvIhQZ7FqKg--76" value="PRV" style="text;html=1;align=center;verticalAlign=middle;resizable=0;points=[];autosize=1;fontSize=22;" parent="1" vertex="1">
          <mxGeometry x="304" y="304" width="60" height="30" as="geometry"/>
        </mxCell>
        <mxCell id="fi40TuRNrvIhQZ7FqKg--78" value="" style="triangle;whiteSpace=wrap;html=1;strokeWidth=2;" parent="1" vertex="1">
          <mxGeometry x="450" y="250" width="30" height="50" as="geometry"/>
        </mxCell>
        <mxCell id="_QJOSVYelI-_E-Hd-5QS-1" style="edgeStyle=orthogonalEdgeStyle;rounded=0;orthogonalLoop=1;jettySize=auto;html=1;exitX=0.5;exitY=1;exitDx=0;exitDy=0;entryX=0;entryY=0.5;entryDx=0;entryDy=0;" edge="1" parent="1" source="_QJOSVYelI-_E-Hd-5QS-2" target="_QJOSVYelI-_E-Hd-5QS-10">
          <mxGeometry relative="1" as="geometry">
            <mxPoint x="770" y="270" as="targetPoint"/>
            <Array as="points">
              <mxPoint x="585" y="270"/>
              <mxPoint x="770" y="270"/>
              <mxPoint x="770" y="380"/>
              <mxPoint x="870" y="380"/>
              <mxPoint x="870" y="240"/>
            </Array>
          </mxGeometry>
        </mxCell>
        <mxCell id="_QJOSVYelI-_E-Hd-5QS-9" style="edgeStyle=orthogonalEdgeStyle;rounded=0;orthogonalLoop=1;jettySize=auto;html=1;" edge="1" parent="1" source="fi40TuRNrvIhQZ7FqKg--79">
          <mxGeometry relative="1" as="geometry">
            <mxPoint x="600" y="270" as="targetPoint"/>
          </mxGeometry>
        </mxCell>
        <mxCell id="fi40TuRNrvIhQZ7FqKg--79" value="" style="line;strokeWidth=2;direction=south;html=1;" parent="1" vertex="1">
          <mxGeometry x="480" y="250" width="10" height="50" as="geometry"/>
        </mxCell>
        <mxCell id="KtkGHCjzZRLb0XnXETBk-1" value="" style="shape=image;html=1;verticalAlign=top;verticalLabelPosition=bottom;labelBackgroundColor=#ffffff;imageAspect=0;aspect=fixed;image=https://cdn0.iconfinder.com/data/icons/gcons-2/21/parabolic-128.png" parent="1" vertex="1">
          <mxGeometry x="560" y="110" width="60" height="60" as="geometry"/>
        </mxCell>
        <mxCell id="_QJOSVYelI-_E-Hd-5QS-3" style="edgeStyle=orthogonalEdgeStyle;rounded=0;orthogonalLoop=1;jettySize=auto;html=1;" edge="1" parent="1" source="_QJOSVYelI-_E-Hd-5QS-2" target="_QJOSVYelI-_E-Hd-5QS-4">
          <mxGeometry relative="1" as="geometry">
            <mxPoint x="310" y="180" as="targetPoint"/>
          </mxGeometry>
        </mxCell>
        <mxCell id="_QJOSVYelI-_E-Hd-5QS-2" value="&lt;font style=&quot;font-size: 19px&quot;&gt;path panel camion&lt;/font&gt;&lt;font size=&quot;1&quot;&gt;&lt;br&gt;&lt;/font&gt;" style="whiteSpace=wrap;html=1;aspect=fixed;" vertex="1" parent="1">
          <mxGeometry x="550" y="179" width="70" height="70" as="geometry"/>
        </mxCell>
        <mxCell id="_QJOSVYelI-_E-Hd-5QS-5" style="edgeStyle=orthogonalEdgeStyle;rounded=0;orthogonalLoop=1;jettySize=auto;html=1;exitX=1;exitY=0.5;exitDx=0;exitDy=0;entryX=0;entryY=0.5;entryDx=0;entryDy=0;" edge="1" parent="1" source="_QJOSVYelI-_E-Hd-5QS-4" target="fi40TuRNrvIhQZ7FqKg--3">
          <mxGeometry relative="1" as="geometry"/>
        </mxCell>
        <mxCell id="_QJOSVYelI-_E-Hd-5QS-4" value="" style="triangle;whiteSpace=wrap;html=1;rotation=-180;" vertex="1" parent="1">
          <mxGeometry x="280" y="140" width="60" height="80" as="geometry"/>
        </mxCell>
        <mxCell id="_QJOSVYelI-_E-Hd-5QS-8" value="&lt;span style=&quot;font-size: 20px&quot;&gt;SATELLITE&lt;/span&gt;" style="text;html=1;align=center;verticalAlign=middle;resizable=0;points=[];autosize=1;" vertex="1" parent="1">
          <mxGeometry x="522" y="80" width="120" height="20" as="geometry"/>
        </mxCell>
        <mxCell id="_QJOSVYelI-_E-Hd-5QS-10" value="&lt;font style=&quot;font-size: 20px&quot;&gt;MONITORADO&lt;/font&gt;" style="rounded=1;whiteSpace=wrap;html=1;arcSize=0;" vertex="1" parent="1">
          <mxGeometry x="840" y="180" width="190" height="100" as="geometry"/>
        </mxCell>
        <mxCell id="_QJOSVYelI-_E-Hd-5QS-14" value="&lt;span style=&quot;font-size: 20px&quot;&gt;PGM&lt;/span&gt;" style="rounded=0;whiteSpace=wrap;html=1;" vertex="1" parent="1">
          <mxGeometry x="840" y="280" width="120" height="60" as="geometry"/>
        </mxCell>
        <mxCell id="_QJOSVYelI-_E-Hd-5QS-15" value="&lt;span style=&quot;color: rgba(0 , 0 , 0 , 0) ; font-family: monospace ; font-size: 0px&quot;&gt;%3CmxGraphModel%3E%3Croot%3E%3CmxCell%20id%3D%220%22%2F%3E%3CmxCell%20id%3D%221%22%20parent%3D%220%22%2F%3E%3CmxCell%20id%3D%222%22%20value%3D%22%22%20style%3D%22triangle%3BwhiteSpace%3Dwrap%3Bhtml%3D1%3BstrokeWidth%3D2%3B%22%20vertex%3D%221%22%20parent%3D%221%22%3E%3CmxGeometry%20x%3D%22450%22%20y%3D%22250%22%20width%3D%2230%22%20height%3D%2250%22%20as%3D%22geometry%22%2F%3E%3C%2FmxCell%3E%3C%2Froot%3E%3C%2FmxGraphModel%3E&lt;/span&gt;&lt;span style=&quot;color: rgba(0 , 0 , 0 , 0) ; font-family: monospace ; font-size: 0px&quot;&gt;%3CmxGraphModel%3E%3Croot%3E%3CmxCell%20id%3D%220%22%2F%3E%3CmxCell%20id%3D%221%22%20parent%3D%220%22%2F%3E%3CmxCell%20id%3D%222%22%20value%3D%22%22%20style%3D%22triangle%3BwhiteSpace%3Dwrap%3Bhtml%3D1%3BstrokeWidth%3D2%3B%22%20vertex%3D%221%22%20parent%3D%221%22%3E%3CmxGeometry%20x%3D%22450%22%20y%3D%22250%22%20width%3D%2230%22%20height%3D%2250%22%20as%3D%22geometry%22%2F%3E%3C%2FmxCell%3E%3C%2Froot%3E%3C%2FmxGraphModel%3E&lt;/span&gt;" style="text;html=1;align=center;verticalAlign=middle;resizable=0;points=[];autosize=1;" vertex="1" parent="1">
          <mxGeometry x="628" y="347" width="20" height="20" as="geometry"/>
        </mxCell>
        <mxCell id="_QJOSVYelI-_E-Hd-5QS-17" style="edgeStyle=orthogonalEdgeStyle;rounded=0;orthogonalLoop=1;jettySize=auto;html=1;" edge="1" parent="1" source="_QJOSVYelI-_E-Hd-5QS-16" target="_QJOSVYelI-_E-Hd-5QS-18">
          <mxGeometry relative="1" as="geometry">
            <mxPoint x="680" y="510" as="targetPoint"/>
          </mxGeometry>
        </mxCell>
        <mxCell id="_QJOSVYelI-_E-Hd-5QS-16" value="" style="triangle;whiteSpace=wrap;html=1;strokeWidth=2;" vertex="1" parent="1">
          <mxGeometry x="570" y="304" width="30" height="50" as="geometry"/>
        </mxCell>
        <mxCell id="_QJOSVYelI-_E-Hd-5QS-18" value="&lt;font style=&quot;font-size: 20px&quot;&gt;P&lt;/font&gt;&lt;font style=&quot;font-size: 20px&quot;&gt;R&lt;/font&gt;&lt;font style=&quot;font-size: 20px&quot;&gt;V&lt;/font&gt;" style="rounded=0;whiteSpace=wrap;html=1;" vertex="1" parent="1">
          <mxGeometry x="960" y="280" width="120" height="60" as="geometry"/>
        </mxCell>
      </root>
    </mxGraphModel>
  </diagram>
</mxfile>
